<?xml version="1.0" encoding="UTF-8"?>
<!DOCTYPE svg PUBLIC "-//W3C//DTD SVG 1.1//EN" "http://www.w3.org/Graphics/SVG/1.1/DTD/svg11.dtd">
<!-- Creator: CorelDRAW X7 -->
<svg xmlns="http://www.w3.org/2000/svg" xml:space="preserve" width="8.26772in" height="11.6929in" version="1.1" style="shape-rendering:geometricPrecision; text-rendering:geometricPrecision; image-rendering:optimizeQuality; fill-rule:evenodd; clip-rule:evenodd"
viewBox="0 0 8268 11693"
 xmlns:xlink="http://www.w3.org/1999/xlink">
 <defs>
  <style type="text/css">
   <![CDATA[
    .str0 {stroke:#2B2A29;stroke-width:6.94488}
    .fil0 {fill:#E31E24}
   ]]>
  </style>
 </defs>
 <g id="Layer_x0020_1">
  <metadata id="CorelCorpID_0Corel-Layer"/>
  <path id="valdemara" class="fil0 str0" d="M-19 6675l892 -314 1210 -399 790 -643 647 -531c0,0 1044,-729 1097,-636 54,92 1224,-1375 1301,-1299 77,75 2330,-2589 2330,-2589l0 151 -1039 1189 -1322 1434 -1177 1200 -1185 673 -1172 981 -237 159 -2135 776 0 -152z"/>
  <path id="brivibas" class="fil0 str0" d="M8268 2808l-448 378 -1730 1791 -284 237 -1332 1478 -447 405 246 178c0,0 1220,-1244 1166,-1290 -54,-46 784,-971 784,-971l1410 -1484 543 -535 92 -70c0,0 0,-104 0,-117z"/>
 </g>
</svg>
